<svg xmlns="http://www.w3.org/2000/svg" viewBox="0 0 200 200" role="img" aria-label="Whimsical donut with pink frosting and colorful sprinkles">
  <!-- Donut base -->
  <defs>
    <radialGradient id="dough" cx="50%" cy="45%" r="60%">
      <stop offset="0%" stop-color="#f9d7b7"/>
      <stop offset="70%" stop-color="#e8b88f"/>
      <stop offset="100%" stop-color="#d5a076"/>
    </radialGradient>
    <radialGradient id="frost" cx="50%" cy="42%" r="60%">
      <stop offset="0%" stop-color="#ffc1d5"/>
      <stop offset="100%" stop-color="#ff8fb0"/>
    </radialGradient>
  </defs>
  <g transform="translate(100,100)">
    <!-- Dough ring -->
    <circle r="80" fill="url(#dough)"/>
    <!-- Hole -->
    <circle r="24" fill="#fff" opacity="0.9"/>
    <!-- Frosting blob -->
    <path d="M-70,-10 C-62,-26 -36,-30 -22,-24 C-6,-16 8,-22 22,-28 C40,-36 62,-26 66,-8 C70,10 58,28 40,34 C22,40 8,30 -10,30 C-28,30 -42,40 -56,30 C-70,20 -78,6 -70,-10 Z" fill="url(#frost)"/>
    <!-- Frosting inner hole blend -->
    <circle r="26" fill="#fff" opacity="0.55"/>

    <!-- Sprinkles -->
    <g stroke-linecap="round" stroke-width="4">
      <g stroke="#66d0ff">
        <line x1="-30" y1="-25" x2="-24" y2="-21"/>
        <line x1="10" y1="-36" x2="16" y2="-32"/>
        <line x1="34" y1="-8" x2="40" y2="-4"/>
      </g>
      <g stroke="#ffd166">
        <line x1="-8" y1="-6" x2="0" y2="-2"/>
        <line x1="-42" y1="8" x2="-36" y2="12"/>
        <line x1="22" y1="24" x2="28" y2="28"/>
      </g>
      <g stroke="#95e6a8">
        <line x1="-18" y1="18" x2="-12" y2="22"/>
        <line x1="6" y1="6" x2="12" y2="10"/>
        <line x1="48" y1="10" x2="54" y2="14"/>
      </g>
      <g stroke="#a78bfa">
        <line x1="-50" y1="-6" x2="-44" y2="-2"/>
        <line x1="-20" y1="-34" x2="-14" y2="-30"/>
        <line x1="12" y1="-12" x2="18" y2="-8"/>
      </g>
      <g stroke="#ff7aa2">
        <line x1="-6" y1="26" x2="0" y2="30"/>
        <line x1="-34" y1="34" x2="-28" y2="38"/>
        <line x1="34" y1="-28" x2="40" y2="-24"/>
      </g>
    </g>

    <!-- Glaze shine -->
    <ellipse cx="-8" cy="-20" rx="26" ry="8" fill="#fff" opacity="0.35"/>
  </g>
</svg>


